<svg id="vuesax_outline_search-normal" data-name="vuesax/outline/search-normal" xmlns="http://www.w3.org/2000/svg" width="24" height="24" viewBox="0 0 24 24">
  <g id="search-normal">
    <g id="Group_29" data-name="Group 29" transform="translate(1.25 1.25)">
      <path id="Vector" d="M10.25,20.5A10.25,10.25,0,1,0,0,10.25,10.264,10.264,0,0,0,10.25,20.5Zm0-19A8.75,8.75,0,1,1,1.5,10.25,8.76,8.76,0,0,1,10.25,1.5Z" transform="translate(0.998)" fill="#122b1a"/>
      <path id="Vector-2" data-name="Vector" d="M.748,3.5a.742.742,0,0,0,.53-.22l2-2A.75.75,0,0,0,2.217.218l-2,2a.754.754,0,0,0,0,1.06A.742.742,0,0,0,.748,3.5Z" transform="translate(0 18.003)" fill="#122b1a"/>
    </g>
    <path id="Vector-3" data-name="Vector" d="M0,0H24V24H0Z" fill="none" opacity="0"/>
  </g>
</svg>
