<svg id="Page"
  xmlns="http://www.w3.org/2000/svg"
  xmlns:xlink="http://www.w3.org/1999/xlink" width="64" height="64" viewBox="0 0 64 64">
  <defs>
    <clipPath id="clip-path">
      <rect id="Rectangle_29" data-name="Rectangle 29" width="64" height="64" fill="#221c0d"/>
    </clipPath>
    <clipPath id="clip-path-2">
      <rect id="Rectangle_30" data-name="Rectangle 30" width="51.2" height="40.96" fill="none"/>
    </clipPath>
  </defs>
  <g id="Group_689" data-name="Group 689">
    <g id="Group_688" data-name="Group 688" clip-path="url(#clip-path)">
      <path id="Path_1080" data-name="Path 1080" d="M180.2,128.321c-.644-.409-1.543.163-2.27.389a.973.973,0,0,0-.6.62.992.992,0,0,0-.019.866c.165.336.324.768.514,1.133a1.3,1.3,0,0,0,.806.755c.732.168,1.453-.518,1.847-1.437a3.124,3.124,0,0,0,.246-1.357,1.253,1.253,0,0,0-.521-.968" transform="translate(-119.877 -86.705)" fill="#483d23"/>
      <path id="Path_1081" data-name="Path 1081" d="M130.866,178.024c-.368-.2-.8-.355-1.131-.522a1.015,1.015,0,0,0-.865.011.977.977,0,0,0-.624.6c-.231.72-.807,1.62-.4,2.266a1.249,1.249,0,0,0,.964.525,3,3,0,0,0,1.359-.239c.921-.385,1.613-1.1,1.449-1.835a1.294,1.294,0,0,0-.75-.81" transform="translate(-86.384 -120.007)" fill="#483d23"/>
      <path id="Path_1082" data-name="Path 1082" d="M74.015,74.109a.586.586,0,0,0-.18.5,1.55,1.55,0,0,0,.2.619A4.048,4.048,0,0,0,75.1,76.457a14.715,14.715,0,0,1-3.253,2.164,4.071,4.071,0,0,0-.718-1.468c-.317-.39-.665-.607-1.017-.458a.581.581,0,0,0-.349.392,1.511,1.511,0,0,0-.052.645,4.087,4.087,0,0,0,.523,1.548,14.363,14.363,0,0,1-3.824.754,4.04,4.04,0,0,0-.1-1.631c-.144-.462-.388-.825-.777-.8V77.6a.646.646,0,0,0-.067-.01c-.39-.015-.635.338-.781.8a4.046,4.046,0,0,0-.112,1.63l-.49-.036c-.163-.017-.324-.043-.486-.061-.326-.028-.643-.107-.965-.156a14.838,14.838,0,0,1-1.879-.519,4.089,4.089,0,0,0,.532-1.545c.046-.485-.039-.9-.4-1.037-.348-.16-.7.073-1.019.449a4.068,4.068,0,0,0-.726,1.464,16.087,16.087,0,0,1-1.694-.977A15.379,15.379,0,0,1,55.9,76.4a4.051,4.051,0,0,0,1.079-1.227c.226-.43.307-.853.022-1.114L57,74.069c-.014-.018-.024-.037-.04-.055a.585.585,0,0,0-.5-.18,1.54,1.54,0,0,0-.619.2A4.046,4.046,0,0,0,54.608,75.1a14.729,14.729,0,0,1-2.164-3.253,4.069,4.069,0,0,0,1.468-.718c.389-.317.607-.665.458-1.017a.581.581,0,0,0-.391-.349,1.512,1.512,0,0,0-.645-.052,4.087,4.087,0,0,0-1.549.523,14.4,14.4,0,0,1-.753-3.824,4.046,4.046,0,0,0,1.631-.1c.462-.144.826-.389.8-.778H53.46a.635.635,0,0,0,.011-.067c.015-.39-.338-.634-.8-.781a4.043,4.043,0,0,0-1.631-.113l.036-.49c.017-.162.043-.324.061-.486.028-.326.108-.643.156-.965a14.706,14.706,0,0,1,.519-1.879,4.076,4.076,0,0,0,1.546.532c.484.046.9-.039,1.037-.4.16-.348-.073-.7-.449-1.018a4.076,4.076,0,0,0-1.464-.726,15.971,15.971,0,0,1,.977-1.694,15.3,15.3,0,0,1,1.2-1.549,4.039,4.039,0,0,0,1.227,1.079c.431.226.854.307,1.114.022L57,57a.611.611,0,0,0,.054-.04.587.587,0,0,0,.18-.5,1.556,1.556,0,0,0-.2-.619,4.048,4.048,0,0,0-1.073-1.233,14.722,14.722,0,0,1,3.253-2.164,4.076,4.076,0,0,0,.718,1.468c.317.39.665.607,1.018.459a.582.582,0,0,0,.349-.392,1.516,1.516,0,0,0,.052-.645,4.077,4.077,0,0,0-.523-1.548,14.364,14.364,0,0,1,3.824-.754,4.038,4.038,0,0,0,.1,1.631c.144.463.389.826.778.8v-.008a.553.553,0,0,0,.067.011c.39.015.634-.338.781-.8a4.04,4.04,0,0,0,.112-1.63l.49.036c.163.017.324.043.486.061.326.028.643.107.965.156a14.772,14.772,0,0,1,1.879.519,4.075,4.075,0,0,0-.531,1.545c-.047.484.039.9.4,1.037.347.16.7-.073,1.018-.449a4.07,4.07,0,0,0,.726-1.464,16,16,0,0,1,1.694.976,15.306,15.306,0,0,1,1.549,1.2,4.047,4.047,0,0,0-1.079,1.227c-.226.43-.307.853-.022,1.114l2.755-2.755a15.966,15.966,0,1,0,0,22.572l-2.75-2.749a.528.528,0,0,0-.054.04" transform="translate(-33.533 -33.532)" fill="#483d23"/>
      <path id="Path_1083" data-name="Path 1083" d="M60.253,177.327a.991.991,0,0,0-.866-.019c-.336.165-.767.323-1.133.514a1.292,1.292,0,0,0-.755.806c-.168.732.518,1.453,1.437,1.846a3.118,3.118,0,0,0,1.357.246,1.252,1.252,0,0,0,.968-.521c.408-.644-.164-1.543-.389-2.27a.973.973,0,0,0-.62-.6" transform="translate(-38.877 -119.877)" fill="#483d23"/>
      <path id="Path_1084" data-name="Path 1084" d="M12.352,128.246c-.72-.231-1.62-.807-2.267-.4a1.25,1.25,0,0,0-.525.964,3,3,0,0,0,.239,1.359c.385.921,1.1,1.613,1.835,1.449a1.294,1.294,0,0,0,.81-.75c.2-.368.355-.8.522-1.131a1.015,1.015,0,0,0-.011-.865.978.978,0,0,0-.6-.624" transform="translate(-6.46 -86.384)" fill="#483d23"/>
      <path id="Path_1085" data-name="Path 1085" d="M10.264,61.261c.644.409,1.543-.163,2.27-.389a.973.973,0,0,0,.6-.62.992.992,0,0,0,.019-.866c-.165-.336-.324-.768-.514-1.133a1.294,1.294,0,0,0-.806-.755c-.732-.168-1.453.518-1.847,1.437a3.125,3.125,0,0,0-.246,1.357,1.253,1.253,0,0,0,.521.968" transform="translate(-6.586 -38.877)" fill="#483d23"/>
      <path id="Path_1086" data-name="Path 1086" d="M58.706,12.444c.368.2.8.355,1.131.522a1.016,1.016,0,0,0,.865-.011.977.977,0,0,0,.624-.6c.231-.72.807-1.62.4-2.267a1.249,1.249,0,0,0-.964-.525A3,3,0,0,0,59.4,9.8c-.921.385-1.613,1.1-1.449,1.835a1.294,1.294,0,0,0,.75.81" transform="translate(-39.187 -6.46)" fill="#483d23"/>
      <path id="Path_1087" data-name="Path 1087" d="M129.33,13.137a.992.992,0,0,0,.866.019c.336-.165.768-.323,1.133-.514a1.294,1.294,0,0,0,.755-.806c.168-.732-.518-1.453-1.437-1.846a3.114,3.114,0,0,0-1.357-.246,1.253,1.253,0,0,0-.968.521c-.408.644.164,1.543.389,2.27a.973.973,0,0,0,.62.6" transform="translate(-86.706 -6.586)" fill="#483d23"/>
      <path id="Path_1088" data-name="Path 1088" d="M178.116,61.326c.72.231,1.62.807,2.267.4a1.248,1.248,0,0,0,.525-.964,3,3,0,0,0-.239-1.359c-.385-.921-1.1-1.613-1.835-1.449a1.294,1.294,0,0,0-.81.75c-.2.368-.355.8-.522,1.131a1.016,1.016,0,0,0,.011.865.979.979,0,0,0,.6.624" transform="translate(-120.007 -39.187)" fill="#483d23"/>
      <path id="Path_1089" data-name="Path 1089" d="M64,32a1.248,1.248,0,0,0-.224-.746c-1.087-1.329-2.061-2.96-3.2-4.329a11.111,11.111,0,0,0-1.808-1.794,5.674,5.674,0,0,0-2.088-1.018,4.477,4.477,0,0,0-3.263.573,17.952,17.952,0,0,0-2.694,2.006,19.1,19.1,0,0,0-1.677-4.086,17.426,17.426,0,0,0,3.328-.47,4.448,4.448,0,0,0,2.714-1.885,7.527,7.527,0,0,0,.8-4.739c-.147-1.776-.616-3.6-.772-5.325a1.356,1.356,0,0,0-.5-.806l.008-.007A1.255,1.255,0,0,0,53.94,9c-.855-.089-1.752-.237-2.637-.406-.9-.149-1.8-.315-2.684-.394a7.522,7.522,0,0,0-4.742.772,4.458,4.458,0,0,0-1.9,2.706A17.673,17.673,0,0,0,41.487,15a18.863,18.863,0,0,0-4.076-1.7,17.887,17.887,0,0,0,2.021-2.684,4.468,4.468,0,0,0,.59-3.258,5.589,5.589,0,0,0-1.007-2.094,9.265,9.265,0,0,0-.819-.939,11.023,11.023,0,0,0-.966-.881c-.681-.579-1.429-1.093-2.17-1.631C34.32,1.309,33.583.77,32.921.228A1.351,1.351,0,0,0,32,.011V0a1.248,1.248,0,0,0-.746.224c-1.329,1.087-2.96,2.061-4.329,3.2a11.124,11.124,0,0,0-1.794,1.808,5.673,5.673,0,0,0-1.018,2.088,4.476,4.476,0,0,0,.573,3.263,17.952,17.952,0,0,0,2.006,2.694,19.137,19.137,0,0,0-4.086,1.677,17.433,17.433,0,0,0-.47-3.328A4.448,4.448,0,0,0,20.25,8.907a7.527,7.527,0,0,0-4.739-.8c-1.776.147-3.6.616-5.325.772a1.356,1.356,0,0,0-.806.5l1.312,1.312.043-.192c1.2-.2,2.39-.5,3.581-.688a13.558,13.558,0,0,1,1.759-.187c.289-.011.572-.013.852,0a8.379,8.379,0,0,1,.834.093,3.592,3.592,0,0,1,1.868.846,3.839,3.839,0,0,1,.991,1.466,8.651,8.651,0,0,1,.47,1.783c.106.621.187,1.271.265,1.893-.2.124-.4.264-.589.4s-.393.27-.576.422a3.678,3.678,0,0,0-1.72-2.093,3.083,3.083,0,0,0-1.707-.3,3.049,3.049,0,0,0-.9.234,2.9,2.9,0,0,0-.78.53l-.092.1,1.027,1.027c.028-.031.051-.063.083-.093a1.375,1.375,0,0,1,.945-.42,1.643,1.643,0,0,1,.912.321,3.191,3.191,0,0,1,1.146,1.59v0c-.305.255-.58.545-.873.814-.246.265-.505.519-.744.791h0A3.19,3.19,0,0,1,15.9,17.874a1.609,1.609,0,0,1-.315-.913,1.394,1.394,0,0,1,.424-.947L14.99,14.99a2.815,2.815,0,0,0-.771,1.673,3.065,3.065,0,0,0,.295,1.709A3.675,3.675,0,0,0,16.6,20.1c-.151.184-.29.377-.426.573s-.284.382-.407.586c-.622-.081-1.264-.161-1.892-.275a8.643,8.643,0,0,1-1.779-.478,3.835,3.835,0,0,1-1.461-1,3.374,3.374,0,0,1-.525-.808A4.213,4.213,0,0,1,9.8,17.639a7.961,7.961,0,0,1-.083-1.686,14.231,14.231,0,0,1,.2-1.759c.092-.6.231-1.182.347-1.787s.262-1.187.359-1.791L9.372,9.373A1.255,1.255,0,0,0,9,10.06c-.09.855-.237,1.752-.406,2.638-.149.9-.315,1.8-.394,2.683a7.521,7.521,0,0,0,.772,4.742,4.457,4.457,0,0,0,2.706,1.9A17.627,17.627,0,0,0,15,22.513a18.863,18.863,0,0,0-1.7,4.076,17.887,17.887,0,0,0-2.684-2.021,4.469,4.469,0,0,0-3.258-.59,5.589,5.589,0,0,0-2.094,1.007,9.229,9.229,0,0,0-.939.819,10.921,10.921,0,0,0-.881.965c-.579.681-1.093,1.429-1.631,2.17C1.309,29.68.77,30.418.228,31.079A1.351,1.351,0,0,0,.011,32H0a1.248,1.248,0,0,0,.224.746c1.087,1.329,2.061,2.96,3.2,4.329A11.128,11.128,0,0,0,5.228,38.87a5.674,5.674,0,0,0,2.088,1.018,4.476,4.476,0,0,0,3.263-.573,17.953,17.953,0,0,0,2.694-2.006,19.12,19.12,0,0,0,1.677,4.086,17.429,17.429,0,0,0-3.328.47A4.448,4.448,0,0,0,8.907,43.75a7.527,7.527,0,0,0-.8,4.739c.147,1.776.616,3.6.772,5.325a1.356,1.356,0,0,0,.5.806l-.008.008A1.254,1.254,0,0,0,10.06,55c.855.09,1.752.237,2.637.406.9.149,1.8.315,2.684.394a7.519,7.519,0,0,0,4.742-.772,4.458,4.458,0,0,0,1.9-2.706A17.653,17.653,0,0,0,22.513,49a18.842,18.842,0,0,0,4.076,1.7,17.884,17.884,0,0,0-2.022,2.684,4.468,4.468,0,0,0-.59,3.258,5.588,5.588,0,0,0,1.006,2.094,9.228,9.228,0,0,0,.819.939,10.919,10.919,0,0,0,.965.881c.681.579,1.429,1.093,2.17,1.631.743.507,1.48,1.046,2.142,1.588a1.351,1.351,0,0,0,.921.218V64a1.248,1.248,0,0,0,.746-.224c1.329-1.087,2.96-2.061,4.329-3.2a11.115,11.115,0,0,0,1.795-1.809,5.675,5.675,0,0,0,1.018-2.088,4.477,4.477,0,0,0-.573-3.263,17.952,17.952,0,0,0-2.006-2.694,19.12,19.12,0,0,0,4.086-1.677,17.426,17.426,0,0,0,.47,3.328,4.448,4.448,0,0,0,1.885,2.714,7.528,7.528,0,0,0,4.739.8c1.776-.147,3.6-.616,5.324-.772a1.356,1.356,0,0,0,.806-.5l-1.312-1.312-.043.192c-1.2.2-2.39.5-3.58.688a13.625,13.625,0,0,1-1.759.186c-.289.011-.572.013-.852,0s-.562-.049-.834-.093a3.6,3.6,0,0,1-1.868-.847,3.839,3.839,0,0,1-.991-1.466,8.653,8.653,0,0,1-.47-1.783c-.105-.622-.187-1.271-.265-1.893.2-.124.4-.264.589-.4s.393-.27.576-.422a3.678,3.678,0,0,0,1.72,2.093,3.109,3.109,0,0,0,2.6.07,2.9,2.9,0,0,0,.78-.53l.092-.1,0,0,.008.008a2.815,2.815,0,0,0,.772-1.673,3.068,3.068,0,0,0-.3-1.709A3.676,3.676,0,0,0,47.4,43.9c.151-.184.29-.377.426-.573s.284-.382.407-.586c.622.081,1.264.161,1.892.275a8.643,8.643,0,0,1,1.779.478,3.839,3.839,0,0,1,1.461,1,3.374,3.374,0,0,1,.525.808,4.2,4.2,0,0,1,.311,1.065,7.962,7.962,0,0,1,.083,1.686,14.169,14.169,0,0,1-.2,1.759c-.091.6-.231,1.182-.347,1.787s-.262,1.187-.359,1.791l1.243,1.243A1.254,1.254,0,0,0,55,53.94c.09-.855.237-1.752.406-2.637.149-.9.315-1.8.394-2.684a7.519,7.519,0,0,0-.772-4.742,4.457,4.457,0,0,0-2.706-1.9A17.654,17.654,0,0,0,49,41.487a18.847,18.847,0,0,0,1.7-4.076,17.888,17.888,0,0,0,2.684,2.021,4.469,4.469,0,0,0,3.258.59,5.587,5.587,0,0,0,2.094-1.007,9.264,9.264,0,0,0,.939-.819,10.966,10.966,0,0,0,.881-.965c.579-.681,1.093-1.429,1.631-2.17.507-.743,1.046-1.48,1.588-2.142A1.351,1.351,0,0,0,63.989,32ZM51.434,30.913h0a3.183,3.183,0,0,1,1.935-.3A1.369,1.369,0,0,1,54.608,32H54.6c0,.042.008.081.007.124a1.384,1.384,0,0,1-.372.965,1.63,1.63,0,0,1-.872.419,3.186,3.186,0,0,1-1.934-.313h0c.03-.4.024-.8.04-1.194-.013-.362-.015-.725-.032-1.087m-8.423-17.04a8.64,8.64,0,0,1,.478-1.779,3.841,3.841,0,0,1,1-1.461,3.394,3.394,0,0,1,.808-.525A4.213,4.213,0,0,1,46.361,9.8a7.962,7.962,0,0,1,1.686-.083,14.171,14.171,0,0,1,1.759.2c.6.091,1.182.23,1.787.347s1.187.262,1.791.359l-.077.077.192.043c.2,1.2.5,2.39.688,3.581a13.614,13.614,0,0,1,.186,1.759c.011.289.013.572,0,.852s-.049.562-.093.834a3.592,3.592,0,0,1-.847,1.868,3.84,3.84,0,0,1-1.466.991,8.661,8.661,0,0,1-1.783.47c-.622.105-1.271.187-1.893.265-.124-.2-.264-.4-.4-.589s-.27-.393-.422-.576a3.68,3.68,0,0,0,2.093-1.72,3.108,3.108,0,0,0,.07-2.6,2.9,2.9,0,0,0-.53-.78l-.1-.092,0,0a2.816,2.816,0,0,0-1.673-.772,3.068,3.068,0,0,0-1.709.3A3.676,3.676,0,0,0,43.9,16.6c-.184-.151-.378-.29-.573-.426s-.382-.284-.586-.407c.081-.622.161-1.264.275-1.892m1.962,3.619v0A3.19,3.19,0,0,1,46.126,15.9a1.609,1.609,0,0,1,.912-.315,1.4,1.4,0,0,1,.948.424l-.007.007c.031.028.062.051.093.083a1.377,1.377,0,0,1,.42.945,1.648,1.648,0,0,1-.322.913,3.192,3.192,0,0,1-1.59,1.146h0c-.255-.305-.545-.58-.814-.873-.266-.247-.52-.505-.792-.745M26.047,9.8a3.507,3.507,0,0,1,.408-3.656A8.528,8.528,0,0,1,27.59,4.89a16.057,16.057,0,0,1,1.384-1.1c.489-.347,1-.673,1.51-1.017.511-.323,1.022-.654,1.517-1.01v.109l.166-.105c.492.36,1,.682,1.511,1.018s1.018.665,1.5,1.025a10.811,10.811,0,0,1,2.506,2.369,3.505,3.505,0,0,1,.386,3.657,15.594,15.594,0,0,1-2.079,3.116c-.233-.049-.468-.084-.7-.128s-.469-.08-.706-.106a3.68,3.68,0,0,0,.262-2.7,3.054,3.054,0,0,0-.993-1.422,2.766,2.766,0,0,0-1.725-.645L32,7.95V7.944a2.818,2.818,0,0,0-1.728.638,3.269,3.269,0,0,0-.615.649,3.13,3.13,0,0,0-.385.767,3.679,3.679,0,0,0,.247,2.7c-.474.048-.94.146-1.409.226A15.554,15.554,0,0,1,26.047,9.8m6.077-.4a1.384,1.384,0,0,1,.965.372,1.63,1.63,0,0,1,.419.872,3.185,3.185,0,0,1-.313,1.933v0c-.4-.03-.8-.024-1.194-.04-.362.013-.725.015-1.087.032v0a3.183,3.183,0,0,1-.3-1.935A1.369,1.369,0,0,1,32,9.392V9.4c.042,0,.081-.008.124-.007M12.566,33.087h0a3.183,3.183,0,0,1-1.935.3A1.369,1.369,0,0,1,9.392,32H9.4c0-.042-.008-.08-.007-.124a1.384,1.384,0,0,1,.372-.965,1.627,1.627,0,0,1,.872-.418,3.184,3.184,0,0,1,1.934.313h0c-.03.4-.024.8-.04,1.194.013.362.015.725.032,1.087M9.8,37.953a3.507,3.507,0,0,1-3.656-.408A8.528,8.528,0,0,1,4.89,36.41a16.057,16.057,0,0,1-1.1-1.384c-.347-.489-.673-1-1.017-1.51-.323-.511-.654-1.022-1.01-1.517h.109l-.105-.166c.36-.492.682-1,1.018-1.511s.665-1.018,1.025-1.5a10.812,10.812,0,0,1,2.369-2.507,3.505,3.505,0,0,1,3.657-.386,15.594,15.594,0,0,1,3.116,2.079c-.049.233-.084.468-.128.7s-.08.469-.106.705a3.681,3.681,0,0,0-2.7-.262,3.054,3.054,0,0,0-1.422.993,2.766,2.766,0,0,0-.645,1.725l0,.132H7.944a2.82,2.82,0,0,0,.638,1.728,3.268,3.268,0,0,0,.649.615,3.132,3.132,0,0,0,.767.386,3.677,3.677,0,0,0,2.7-.248c.048.474.146.94.226,1.409A15.554,15.554,0,0,1,9.8,37.953M20.989,50.128a8.643,8.643,0,0,1-.478,1.779,3.835,3.835,0,0,1-1,1.461,3.374,3.374,0,0,1-.808.525,4.2,4.2,0,0,1-1.065.311,7.961,7.961,0,0,1-1.686.083,14.176,14.176,0,0,1-1.759-.2c-.6-.092-1.182-.231-1.787-.347s-1.187-.261-1.791-.359l.077-.077-.192-.043c-.2-1.2-.5-2.39-.688-3.58a13.569,13.569,0,0,1-.187-1.759c-.011-.289-.013-.572,0-.852a8.379,8.379,0,0,1,.093-.834,3.589,3.589,0,0,1,.846-1.867,3.836,3.836,0,0,1,1.466-.991,8.671,8.671,0,0,1,1.783-.47c.621-.105,1.271-.187,1.893-.265.124.2.264.4.4.59s.27.392.422.576a3.677,3.677,0,0,0-2.093,1.72,3.108,3.108,0,0,0-.07,2.6,2.9,2.9,0,0,0,.53.78l.1.092,0,0a2.816,2.816,0,0,0,1.673.772,3.068,3.068,0,0,0,1.709-.3A3.674,3.674,0,0,0,20.1,47.4c.184.151.378.29.573.426s.382.284.586.407c-.081.622-.161,1.264-.275,1.892m-1.962-3.619v0A3.19,3.19,0,0,1,17.874,48.1a1.609,1.609,0,0,1-.912.315,1.4,1.4,0,0,1-.947-.424L15,49l1.023-1.023c-.031-.028-.063-.051-.093-.083a1.376,1.376,0,0,1-.42-.945,1.643,1.643,0,0,1,.321-.912,3.193,3.193,0,0,1,1.59-1.146h0c.255.305.545.58.814.873.266.247.52.505.792.744M37.953,54.2a3.506,3.506,0,0,1-.408,3.656A8.528,8.528,0,0,1,36.41,59.11a16.122,16.122,0,0,1-1.384,1.1c-.489.347-1,.673-1.51,1.017-.511.323-1.022.654-1.517,1.01v-.108l-.166.105c-.492-.359-1-.682-1.511-1.018s-1.018-.665-1.5-1.025a10.812,10.812,0,0,1-2.507-2.369,3.505,3.505,0,0,1-.386-3.657,15.607,15.607,0,0,1,2.079-3.116c.233.049.468.085.7.128s.469.08.705.106a3.681,3.681,0,0,0-.262,2.7,3.055,3.055,0,0,0,.993,1.422,2.766,2.766,0,0,0,1.725.644l.132,0v.006a2.818,2.818,0,0,0,1.728-.638,3.266,3.266,0,0,0,.615-.649A3.139,3.139,0,0,0,34.729,54a3.677,3.677,0,0,0-.248-2.7c.474-.048.94-.146,1.409-.226A15.554,15.554,0,0,1,37.953,54.2m-6.077.4a1.384,1.384,0,0,1-.965-.372,1.627,1.627,0,0,1-.418-.872,3.184,3.184,0,0,1,.313-1.934v0c.4.03.8.024,1.194.04.362-.012.725-.015,1.087-.032v0a3.183,3.183,0,0,1,.3,1.935A1.369,1.369,0,0,1,32,54.608V54.6c-.042,0-.08.008-.124.007M48.1,46.126a1.61,1.61,0,0,1,.315.912,1.4,1.4,0,0,1-.424.948l-.007-.007c-.028.031-.051.062-.083.093a1.377,1.377,0,0,1-.945.42,1.646,1.646,0,0,1-.912-.322,3.191,3.191,0,0,1-1.146-1.59v0c.305-.255.58-.545.873-.814.246-.265.505-.52.744-.792h0A3.19,3.19,0,0,1,48.1,46.126m.57-7.225a18.067,18.067,0,1,1,1.37-6.9,18.091,18.091,0,0,1-1.37,6.9m13.573-6.735c-.359.492-.682,1-1.018,1.511s-.665,1.018-1.025,1.5a10.811,10.811,0,0,1-2.369,2.506,3.505,3.505,0,0,1-3.657.386,15.593,15.593,0,0,1-3.116-2.079c.049-.233.084-.468.128-.7s.08-.469.106-.706a3.679,3.679,0,0,0,2.7.262,3.056,3.056,0,0,0,1.422-.993,2.768,2.768,0,0,0,.644-1.725l0-.132h.006a2.816,2.816,0,0,0-.638-1.728,3.277,3.277,0,0,0-.649-.615A3.139,3.139,0,0,0,54,29.271a3.68,3.68,0,0,0-2.7.248c-.048-.474-.146-.94-.226-1.409A15.554,15.554,0,0,1,54.2,26.047a3.507,3.507,0,0,1,3.656.408A8.528,8.528,0,0,1,59.11,27.59a16.121,16.121,0,0,1,1.1,1.384c.347.489.673,1,1.017,1.51.323.511.654,1.022,1.01,1.517h-.108Z" fill="#483d23"/>
      <path id="Path_1090" data-name="Path 1090" d="M128.024,64.019l-2.75,2.75a.479.479,0,0,0,.04.054.584.584,0,0,0,.5.18,1.548,1.548,0,0,0,.62-.2,4.046,4.046,0,0,0,1.233-1.073,14.712,14.712,0,0,1,2.164,3.253,4.066,4.066,0,0,0-1.468.718c-.39.317-.607.665-.459,1.017a.582.582,0,0,0,.391.349,1.513,1.513,0,0,0,.645.052,4.085,4.085,0,0,0,1.548-.523,14.389,14.389,0,0,1,.754,3.824,4.039,4.039,0,0,0-1.631.1c-.462.144-.825.388-.8.777h.008a.517.517,0,0,0-.011.067c-.015.39.338.635.8.781a4.042,4.042,0,0,0,1.63.112l-.036.49c-.016.163-.042.324-.061.486-.029.326-.107.643-.156.965a14.776,14.776,0,0,1-.519,1.879,4.083,4.083,0,0,0-1.545-.531c-.485-.046-.9.039-1.037.4-.16.348.073.7.449,1.018a4.069,4.069,0,0,0,1.464.726,15.95,15.95,0,0,1-.977,1.694,15.381,15.381,0,0,1-1.2,1.549,4.048,4.048,0,0,0-1.227-1.079c-.43-.226-.853-.307-1.114-.022l2.755,2.755a15.954,15.954,0,0,0,0-22.572" transform="translate(-84.737 -43.305)" fill="#483d23"/>
    </g>
  </g>
  <g id="Group_691" data-name="Group 691" transform="translate(6.4 11.52)">
    <g id="Group_690" data-name="Group 690" transform="translate(0 0)" clip-path="url(#clip-path-2)">
      <path id="Path_1091" data-name="Path 1091" d="M50.523,4.615c-1.223-.013-2.5.039-3.929.143a.451.451,0,0,1-.338-.117.425.425,0,0,1-.143-.338V.754a.666.666,0,0,0-.677-.676A42.477,42.477,0,0,0,25.854,5.486a.472.472,0,0,1-.455,0A42.381,42.381,0,0,0,5.829,0a.665.665,0,0,0-.664.663L5.153,4.225a.443.443,0,0,1-.143.325.432.432,0,0,1-.351.117c-1.418-.1-2.706-.156-3.916-.156a.668.668,0,0,0-.677.663L0,34.583a.68.68,0,0,0,.677.676c9.824.013,17.63,2.717,24.618,5.642a.608.608,0,0,0,.52,0c7-2.886,14.82-5.564,24.644-5.538a.689.689,0,0,0,.677-.676l.065-29.4a.68.68,0,0,0-.677-.676M23.017,38.145a.442.442,0,0,1-.39.221.45.45,0,0,1-.169-.039A60.617,60.617,0,0,0,1.8,33.972a.45.45,0,0,1-.442-.455L1.405,6.371a.422.422,0,0,1,.143-.325.4.4,0,0,1,.325-.13c.963.026,1.913.052,2.85.117a.447.447,0,0,1,.429.455L5.1,30.631a.672.672,0,0,0,.677.676,29.151,29.151,0,0,1,11.385,2.574,21.426,21.426,0,0,1,5.777,3.692.454.454,0,0,1,.078.572m2.863-.234a.567.567,0,0,1-.7-.039l-1.067-.988a21.069,21.069,0,0,0-6.389-4.238A30.6,30.6,0,0,0,6.883,30.033a.456.456,0,0,1-.429-.455L6.506,1.9a.472.472,0,0,1,.143-.338A.5.5,0,0,1,7,1.443,42.216,42.216,0,0,1,24.709,6.657a.672.672,0,0,1,.091.078,2.471,2.471,0,0,0,.807.4c.26,0,.781-.4.937-.481A42.42,42.42,0,0,1,44.278,1.521a.51.51,0,0,1,.338.117.472.472,0,0,1,.143.338l-.052,27.679a.467.467,0,0,1-.442.455,30.669,30.669,0,0,0-10.839,2.561,21.517,21.517,0,0,0-6.415,4.212Zm23.9-4.29a.458.458,0,0,1-.442.455A60.647,60.647,0,0,0,28.664,38.34a.4.4,0,0,1-.169.039.459.459,0,0,1-.3-.806,21.658,21.658,0,0,1,5.777-3.666,29.38,29.38,0,0,1,11.385-2.522.675.675,0,0,0,.69-.676L46.1,6.566a.456.456,0,0,1,.429-.455c.924-.052,1.887-.078,2.85-.1a.452.452,0,0,1,.325.13.513.513,0,0,1,.13.325Z" transform="translate(0 0)" fill="#0d1e13"/>
      <path id="Path_1092" data-name="Path 1092" d="M43.266,1.643l-.052,27.679a.467.467,0,0,1-.442.455,30.669,30.669,0,0,0-10.839,2.561,21.517,21.517,0,0,0-6.415,4.212l-1.132,1.027a.567.567,0,0,1-.7-.039l-1.067-.988a21.069,21.069,0,0,0-6.389-4.238A30.6,30.6,0,0,0,5.389,29.7a.456.456,0,0,1-.429-.455L5.012,1.565a.472.472,0,0,1,.143-.338.5.5,0,0,1,.351-.117A42.216,42.216,0,0,1,23.215,6.323a.672.672,0,0,1,.091.078,2.471,2.471,0,0,0,.807.4c.26,0,.781-.4.937-.481A42.42,42.42,0,0,1,42.784,1.188a.51.51,0,0,1,.338.117.472.472,0,0,1,.143.338" transform="translate(1.494 0.333)" fill="#221c0d"/>
      <path id="Path_1093" data-name="Path 1093" d="M43.345,5.075l-.052,27.159a.458.458,0,0,1-.442.455,60.647,60.647,0,0,0-20.675,4.264.4.4,0,0,1-.169.039.459.459,0,0,1-.3-.806,21.658,21.658,0,0,1,5.777-3.666A29.38,29.38,0,0,1,38.869,30a.675.675,0,0,0,.69-.676L39.61,5.179a.456.456,0,0,1,.429-.455c.924-.052,1.887-.078,2.85-.1a.452.452,0,0,1,.325.13.513.513,0,0,1,.13.325" transform="translate(6.489 1.386)" fill="#1a150a"/>
      <path id="Path_1094" data-name="Path 1094" d="M22.7,36.78a.442.442,0,0,1-.39.221.449.449,0,0,1-.169-.039A60.617,60.617,0,0,0,1.482,32.607a.45.45,0,0,1-.442-.455L1.092,5.005a.422.422,0,0,1,.143-.325.4.4,0,0,1,.325-.13c.963.026,1.913.052,2.85.117a.447.447,0,0,1,.429.455L4.787,29.266a.672.672,0,0,0,.677.676,29.151,29.151,0,0,1,11.385,2.574,21.426,21.426,0,0,1,5.777,3.692.454.454,0,0,1,.078.572" transform="translate(0.313 1.365)" fill="#1a150a"/>
    </g>
  </g>
</svg>
