<svg xmlns="http://www.w3.org/2000/svg" width="100" height="99.997" viewBox="0 0 100 99.997">
  <g id="Logo" transform="translate(-789.603 -127.975)">
    <g id="Group_3" data-name="Group 3" transform="translate(806.36 140.875)">
      <g id="Path_6" data-name="Path 6" transform="translate(32.237 7.978)">
        <g id="Group_10" data-name="Group 10">
          <path id="Path_6-2" data-name="Path 6" d="M875.969,158.616c-.147.727-.29,1.455-.447,2.18-.014.068-.108.119-.173.168-3.041,2.308-6.052,4.656-9.226,6.784-1.334.894-2.579,1.922-3.845,2.915a7.166,7.166,0,0,0-.811.9c-.061-.1-.2-.218-.2-.338a3.152,3.152,0,0,1,1.026-2.694q2-1.56,4.055-3.05c1.883-1.373,3.788-2.716,5.676-4.08.786-.567,1.566-1.141,2.332-1.735.473-.367.914-.775,1.368-1.163Z" transform="translate(-861.247 -158.505)" fill="#ab8f54"/>
        </g>
      </g>
      <g id="Group_2" data-name="Group 2" transform="translate(1.126 4.043)">
        <g id="Path_7" data-name="Path 7" transform="translate(1.542 8.59)">
          <g id="Group_12" data-name="Group 12" transform="translate(0 0)">
            <path id="Path_7-2" data-name="Path 7" d="M885.447,183.9c-.1-.168-.3-.377-.456-.376a.736.736,0,0,0-.479.364,7.943,7.943,0,0,0-.853,2.513,3.506,3.506,0,0,0,.443,2.793,5.075,5.075,0,0,1,.524,1.577.656.656,0,0,1-.471.921,4.828,4.828,0,0,1-2.1.41,8.8,8.8,0,0,1-3.157-.972,1.9,1.9,0,0,1-1.2-2.348c.147-.821.3-1.641.436-2.462.051-.315.152-.662-.241-.927a2.285,2.285,0,0,0-1.015,1.269c-.488,1.211-.963,2.427-1.467,3.631a6.708,6.708,0,0,1-1.358,2.364,10.181,10.181,0,0,1-2.851,1.967,3.394,3.394,0,0,1-4.485-1.706c-.04-.091-.077-.183-.11-.277a15.129,15.129,0,0,1-.611-3.767.659.659,0,0,0-.183-.572c-.229-.166-.457-.017-.626.215a19.507,19.507,0,0,1-5.035,4.308,3.593,3.593,0,0,1-1.859.9c-.5-.736-.949-1.442-1.448-2.106a14.892,14.892,0,0,0-3.04-3.291,3.271,3.271,0,0,0-2.968-.421c-3.351,3.048-3.75,5.761-3.848,6.223a7.008,7.008,0,0,0,.183,3.512,2.974,2.974,0,0,0,1.635,1.887,7.562,7.562,0,0,0,4.755.579,9.268,9.268,0,0,0,1.3-.226c.73-.232,1.436-.533,2.188-.816a5.486,5.486,0,0,1,1,2.466.752.752,0,0,1-.107.479c-.377.648-.748,1.3-1.172,1.921-1.862,2.711-4.394,4.782-6.721,7.044a31.769,31.769,0,0,1-4.341,3.488,27.559,27.559,0,0,1-4.83,2.564,6.894,6.894,0,0,1-5.706-.28,7.463,7.463,0,0,1-3.715-4.521,15.9,15.9,0,0,1-.506-3.381c-.1-.631-.142-1.269-.205-1.874.479-.383,3.858-3.3,5.065-4.481,1.421-1.39,2.855-2.761,4.228-4.2.965-1.013,4.076-5.471,4.864-6.547a9.2,9.2,0,0,0,1.43-2.986,37.054,37.054,0,0,0,.677-4.287,1.836,1.836,0,0,0-.025-.416,14.148,14.148,0,0,0-1.31-4.464,9.973,9.973,0,0,0-.909-1.691c-1.011-1.468-2.074-2.9-3.1-4.358-.538-.766-1.042-1.557-1.608-2.408,1.087-.161,1.97.551,2.935.308-.018-.8,0-.825-.41-1.163-.821-.667-1.654-1.312-2.491-1.955-.769-.591-1.576-1.135-2.315-1.762a8.458,8.458,0,0,1-.985-1.251c-.112.367-.205.616-.261.873-.092.436-.133.884-.24,1.316-.22.894-.451,1.786-.714,2.667a.984.984,0,0,0,.286,1.134,163.528,163.528,0,0,1,8.942,14.143,1.832,1.832,0,0,1-.158,1.959c-.777,1.082-1.5,2.2-2.3,3.267a31.043,31.043,0,0,1-2.316,2.838c-1.436,1.5-2.941,2.941-4.431,4.39-1.231,1.2-2.469,2.4-3.737,3.569-1.655,1.524-3.344,3.009-5.011,4.52-.41.371-.771.8-1.179,1.17-1.145,1.046-2.3,2.075-3.455,3.116-1.05.948-2.093,1.905-3.146,2.852a4.386,4.386,0,0,0-1.066,1.593,1.232,1.232,0,0,0,1.321-.289c.64-.486,5.662-3.51,7.522-4.553.479-.267.914-.6,1.368-.912.379-.261.752-.529,1.264-.889-.039.692-.576,5.5.762,9.252a9.308,9.308,0,0,0,2.354,3.3,6.844,6.844,0,0,0,3.38,1.69c1.448.3,5.464.116,9.536-2.941.813-.61,2.667-1.99,2.712-2.026.584-.5,1.18-.981,1.74-1.5q1.608-1.5,3.169-3.05c.664-.662,1.288-1.368,1.915-2.063.24-.266.434-.574.663-.851.9-1.09,2.617-4.009,2.778-4.234a4.994,4.994,0,0,0,.772-2.356c.178-1.325.41-2.642.615-3.966a7.219,7.219,0,0,0,.153-1.239,1.02,1.02,0,0,1,.5-.97,27.367,27.367,0,0,0,3.859-3.161c.023-.023.1.008.2.018.057.513.129,1.036.17,1.561a4.955,4.955,0,0,0,2.861,4.042,3.349,3.349,0,0,0,3.1-.068,8.166,8.166,0,0,0,4.409-4.072c.19-.418.433-.812.681-1.269a9.491,9.491,0,0,0,1.089,1.15,7.4,7.4,0,0,0,5.649,1.641,3.626,3.626,0,0,0,3.046-2.375,19.231,19.231,0,0,0,.967-4.654A9.149,9.149,0,0,0,885.447,183.9Zm-36.167,10.41a2.529,2.529,0,0,1,1.7-1.663,1.353,1.353,0,0,1,1.187.2,7.025,7.025,0,0,1,2.221,2.215c-2.61.324-4.02.115-5.1-.75Z" transform="translate(-818.009 -165.312)" fill="#ab8f54"/>
          </g>
        </g>
        <path id="Path_8" data-name="Path 8" d="M821.6,182.658c-.5,1.148-1.074,2.268-1.5,3.441-.589,1.592-3.032,8.447-1.518,11.264,1.6,2.069,4.541,2.6,9.62-1.606a11.57,11.57,0,0,0,3.758-8.319,3.067,3.067,0,0,0-.068-1,7.119,7.119,0,0,0-2.609-4.066c-1.149-.917-2.3-1.829-3.518-2.8.248-.635.424-1.2.678-1.72.67-1.377,3.383-6.992,3.581-8.6.121-.969.249-1.937.361-2.907a3.43,3.43,0,0,0-.073-.632,3.01,3.01,0,0,0-.541.514c-.192.338-.33.706-.494,1.06-.769,1.666-4.438,8.858-5.024,10.053-.094.193-.23.366-.4.633a43.009,43.009,0,0,1-3.291-3.443c1.1-.3,2.159.1,3.274-.2a2.663,2.663,0,0,0-.4-.483c-.317-.223-.661-.4-.989-.615a24.132,24.132,0,0,0-4.574-2.168,1.321,1.321,0,0,1-.6-.5c-.286-.449-.648-.762-.939-.642-.387.157-.452.514-.46.9q-.045,2.091-.112,4.182a.965.965,0,0,0,.492.894c.227.153,4.7,5.061,5.117,5.506C821.853,181.946,821.892,181.985,821.6,182.658Zm1.85.889a1.76,1.76,0,0,1,.342.143c1.551,1.256,3.107,2.5,4.644,3.778a4.315,4.315,0,0,1,1.453,2.1,9.913,9.913,0,0,1-1.254,1.163,61.664,61.664,0,0,1-6.228,3.4A1.862,1.862,0,0,1,820,191.986a17.189,17.189,0,0,1,.889-2.689c.578-1.385,1.24-2.735,1.858-4.1.241-.529.454-1.068.7-1.649Z" transform="translate(-815.754 -156.853)" fill="#ab8f54"/>
        <path id="Path_9" data-name="Path 9" d="M830.045,161.188a.58.58,0,0,0,.068.048c.1.062.232.086.306-.062A30.35,30.35,0,0,0,832,157.268c1.5.674,5.2,3.031,5.307,3.031s.277-.173.314-.3c.216-.764,1.194-3.386,1.386-3.966.23-.7.2-.863-.474-1.189-1.421-.684-2.856-1.344-4.291-2a.525.525,0,0,0-.73.142.536.536,0,0,0-.072.155c-.153.327-1.114,3.256-1.33,3.488-.282-.174-3.3-1.509-4.528-2.018a.547.547,0,0,0-.754.174c-.01.016-.019.033-.028.051-.168.31-1.146,3.48-1.26,3.672-.274.453-.107.76.335.889C825.892,159.4,829.751,160.938,830.045,161.188Z" transform="translate(-818.805 -152.751)" fill="#ab8f54"/>
      </g>
      <g id="Path_10" data-name="Path 10" transform="translate(40.375 10.43)">
        <g id="Group_17" data-name="Group 17">
          <path id="Path_10-2" data-name="Path 10" d="M873.147,184.763c1.053-1.07,2.091-2.149,3.154-3.2.906-.9,1.847-1.754,2.763-2.64a99.215,99.215,0,0,0,7.029-7.287,17.4,17.4,0,0,1,1.151-1.331c-.486-.293-.9-.5-1.265-.772q-1.005-.732-1.966-1.524a.958.958,0,0,1-.335-.973,8.22,8.22,0,0,1,2.084-4.3,1.736,1.736,0,0,1,2.843.205,4.459,4.459,0,0,1,.677,3.818c-.1.547-.287,1.073-.452,1.675.5.339.983.708,1.5,1.006a15.177,15.177,0,0,1,3.495,2.8.828.828,0,0,1,.259.9c-.141.451-.24.92-.421,1.354s-.494.479-.756.12c-1.224-1.671-3.04-2.549-4.762-3.73-.288.431-.524.832-.806,1.2-1.07,1.385-4.308,5.1-4.834,5.6-1.641,1.535-6.471,5.957-7.286,6.577-.03.023-.062.046-.093.068a15.152,15.152,0,0,1-1.41.8C873.454,185.271,873.312,185.119,873.147,184.763ZM888.1,167.947a3.43,3.43,0,0,0-.441-2.608,1.182,1.182,0,0,0-1.562-.6l-.049.024a2.166,2.166,0,0,0-.966,1.139,12.143,12.143,0,0,0,3.019,2.039Z" transform="translate(-873.147 -162.091)" fill="#ab8f54"/>
        </g>
      </g>
      <g id="Path_11" data-name="Path 11" transform="translate(40.523 50.526)">
        <g id="Group_18" data-name="Group 18">
          <path id="Path_11-2" data-name="Path 11" d="M894.562,222.039a3.21,3.21,0,0,1-.137,1.961c-.352,1.336-.107,1.666,1.258,1.641.193,0,.387-.018.579-.042,1.338-.159,1.5-.3,1.512-1.664a4.742,4.742,0,0,1,.92-3.214,2.149,2.149,0,0,1,.149.449,10.581,10.581,0,0,1-.78,5.32,1.931,1.931,0,0,1-.92,1.026,3.747,3.747,0,0,1-3.918-.044,5.508,5.508,0,0,1-1.877,2.2,1.351,1.351,0,0,1-.743.3,3.378,3.378,0,0,1-3.009-1.279,2.356,2.356,0,0,0-3.312-.166,31.188,31.188,0,0,0-2.315,2.621c-.752.969-7.686,6.819-8.109,7.129l-.493-.336c.021-.068.021-.168.068-.214.646-.6,3.137-3.126,3.167-3.158s.073-.074.142-.137c.772-.743,6.872-7.258,7.673-8.141a2.986,2.986,0,0,1,4.048.006,2.571,2.571,0,0,0,4.725-.885,11.33,11.33,0,0,1,1.044-2.975A2.991,2.991,0,0,1,894.562,222.039Z" transform="translate(-873.364 -220.722)" fill="#ab8f54"/>
        </g>
      </g>
      <g id="Path_12" data-name="Path 12" transform="translate(0 46.259)">
        <g id="Group_19" data-name="Group 19">
          <path id="Path_12-2" data-name="Path 12" d="M815.862,214.483a2.546,2.546,0,0,1,0,.526c-.235.974-.468,1.948-.733,2.915a4.577,4.577,0,0,0,.958,4.071c.624.843,1.44.778,2.075-.051a6.5,6.5,0,0,0,.6-1.094c.246-.5.472-1.007.715-1.5.015-.032.092-.034.217-.075a2.508,2.508,0,0,1-.008.634,13.038,13.038,0,0,1-.529,1.667,19.273,19.273,0,0,1-1.113,2.326c-.854,1.448-1.651,1.483-2.722.31a5.289,5.289,0,0,1-1.149-4.149,16.76,16.76,0,0,1,1.468-5.372C815.659,214.626,815.742,214.587,815.862,214.483Z" transform="translate(-814.107 -214.483)" fill="#ab8f54"/>
        </g>
      </g>
      <g id="Path_13" data-name="Path 13" transform="translate(29.859)">
        <g id="Group_20" data-name="Group 20">
          <path id="Path_13-2" data-name="Path 13" d="M859.525,146.839a2.542,2.542,0,0,1,0,.526c-.236.974-.468,1.949-.733,2.915a4.578,4.578,0,0,0,.957,4.072c.624.843,1.44.778,2.076-.052a6.506,6.506,0,0,0,.6-1.094c.246-.5.473-1.007.715-1.5.016-.031.092-.034.217-.075a2.528,2.528,0,0,1-.008.634,13.243,13.243,0,0,1-.529,1.667,19.284,19.284,0,0,1-1.113,2.325c-.854,1.448-1.65,1.483-2.722.31a5.288,5.288,0,0,1-1.149-4.149,16.757,16.757,0,0,1,1.468-5.372C859.322,146.982,859.4,146.944,859.525,146.839Z" transform="translate(-857.77 -146.839)" fill="#ab8f54"/>
        </g>
      </g>
    </g>
    <g id="Group_4" data-name="Group 4" transform="translate(798.862 134.866)">
      <g id="Path_14" data-name="Path 14" transform="translate(0 28.814)">
        <path id="Path_14-2" data-name="Path 14" d="M806.67,205.161a40.023,40.023,0,0,1-.571-24.083.7.7,0,0,0-.466-.862.683.683,0,0,0-.851.458l0,.012a41.43,41.43,0,0,0,.59,24.93.684.684,0,0,0,.865.432l.011,0a.7.7,0,0,0,.425-.884Z" transform="translate(-803.142 -180.186)" fill="#ab8f54"/>
      </g>
      <g id="Path_15" data-name="Path 15" transform="translate(14.566 69.81)">
        <path id="Path_15-2" data-name="Path 15" d="M876.741,240.319a38.865,38.865,0,0,1-51.174,1.368.684.684,0,0,0-.963.089l-.006.008a.7.7,0,0,0,.1.977,40.232,40.232,0,0,0,52.976-1.418.7.7,0,0,0,.044-.981.683.683,0,0,0-.966-.051l-.007.006Z" transform="translate(-824.442 -240.135)" fill="#ab8f54"/>
      </g>
      <g id="Path_16" data-name="Path 16" transform="translate(17.208 0)">
        <path id="Path_16-2" data-name="Path 16" d="M829.385,146.41a38.99,38.99,0,0,1,60.043,22.431.688.688,0,0,0,.837.5h0a.7.7,0,0,0,.491-.849,40.575,40.575,0,0,0-39.167-30.435,40.089,40.089,0,0,0-22.991,7.215.7.7,0,0,0-.175.966.685.685,0,0,0,.95.181l.008,0Z" transform="translate(-828.304 -138.052)" fill="#ab8f54"/>
      </g>
    </g>
    <g id="Group_5" data-name="Group 5" transform="translate(789.603 127.975)">
      <g id="Path_17" data-name="Path 17" transform="translate(0)">
        <path id="Path_17-2" data-name="Path 17" d="M867.168,227.972h-.01v0H812.037A22.461,22.461,0,0,1,789.6,205.549V150.4a22.461,22.461,0,0,1,22.435-22.424h55.132A22.459,22.459,0,0,1,889.6,150.4v55.148A22.463,22.463,0,0,1,867.168,227.972Zm-55.122-3.681h55.121a18.776,18.776,0,0,0,18.756-18.747V150.4a18.755,18.755,0,0,0-18.755-18.745H812.038A18.777,18.777,0,0,0,793.283,150.4v55.148a18.778,18.778,0,0,0,18.756,18.744Z" transform="translate(-789.603 -127.975)" fill="#ab8f54"/>
      </g>
    </g>
    <g id="Group_6" data-name="Group 6" transform="translate(838.773 208.276)">
      <g id="Path_18" data-name="Path 18" transform="translate(0 1.167)">
        <path id="Path_18-2" data-name="Path 18" d="M862.482,248.513l-.36-.308-.375.634c.214.386.517.258.76.174a1.846,1.846,0,0,0,.906-.648l-.324-.458.274-.223a1.916,1.916,0,0,1,.23.2.341.341,0,0,1,.051.481.35.35,0,0,1-.055.054c-.191.205-.41.384-.615.574.313.322.589.3,1.312-.12a.512.512,0,0,1-.037-.687,6.9,6.9,0,0,1,.635-.882c.238-.279.355-.259.67.049l-.263.25-.314-.161a2,2,0,0,0-.584,1.013c.285.037.41-.226.641-.274a.988.988,0,0,1-.493.811,3.489,3.489,0,0,0,1.573-.636c-.026-.029-.043-.064-.068-.074-.445-.175-.479-.274-.216-.665s.543-.505.867-.347c.019.009.027.042.042.068-.131.205-.3.3-.529.145l-.22.248c.021.051.026.1.053.121a.61.61,0,0,0,.742.049c.166-.1.348-.174.522-.26l.057.089a7.63,7.63,0,0,1-.638.5c-.292.184-.62.31-.907.5a6.027,6.027,0,0,1-1.518.612c-.044.015-.129.018-.143,0-.1-.17-.212-.043-.312-.014s-.165.094-.254.12c-.37.112-.742.205-.97-.212a7.078,7.078,0,0,1-.889.127c-.6-.129.119-1.14.529-1.44C862.753,248.119,862.8,248.249,862.482,248.513Z" transform="translate(-861.503 -247.106)" fill="#ab8f54"/>
      </g>
      <g id="Path_19" data-name="Path 19" transform="translate(2.239)">
        <path id="Path_19-2" data-name="Path 19" d="M865.159,245.88c-.079.274-.025.578-.381.684.107-.372.1-.768.445-1.026.032-.024.058-.058.091-.079a.392.392,0,0,1,.479.049c.1.073.151.168.087.278a.383.383,0,0,1-.418.172C865.36,245.936,865.259,245.91,865.159,245.88Z" transform="translate(-864.778 -245.399)" fill="#ab8f54"/>
      </g>
    </g>
  </g>
</svg>
